<?xml version="1.0" encoding="UTF-8" standalone="no"?>
<!DOCTYPE svg PUBLIC "-//W3C//DTD SVG 1.1//EN" "http://www.w3.org/Graphics/SVG/1.1/DTD/svg11.dtd">
<!-- Generated by Microsoft Visio, SVG Export architecture.svg Page-1 -->
<svg xmlns="http://www.w3.org/2000/svg" xmlns:xlink="http://www.w3.org/1999/xlink" xmlns:ev="http://www.w3.org/2001/xml-events"
		width="10.6856in" height="4.78217in" viewBox="0 0 769.362 344.316" xml:space="preserve" color-interpolation-filters="sRGB"
		class="st11">
	<style type="text/css">
	<![CDATA[
		.st1 {fill:#ffffff;stroke:#a5a5a5;stroke-linecap:round;stroke-linejoin:round;stroke-width:2}
		.st2 {fill:#5c5c5c;font-family:Calibri;font-size:1.16666em}
		.st3 {font-size:1em}
		.st4 {fill:none;stroke:#a5a5a5;stroke-dasharray:14,10;stroke-linecap:round;stroke-linejoin:round;stroke-width:2}
		.st5 {fill:none;stroke:none;stroke-linecap:round;stroke-linejoin:round;stroke-width:2}
		.st6 {fill:#0070c0;font-family:Calibri;font-size:1.16666em}
		.st7 {fill:#5b9bd5;stroke:#a5a5a5;stroke-linecap:round;stroke-linejoin:round;stroke-width:2}
		.st8 {fill:#ffffff;font-family:Calibri;font-size:1.16666em}
		.st9 {fill:none;stroke:none;stroke-linecap:round;stroke-linejoin:round;stroke-width:0.75}
		.st10 {fill:#000000;font-family:Calibri;font-size:1.16666em}
		.st11 {fill:none;fill-rule:evenodd;font-size:12px;overflow:visible;stroke-linecap:square;stroke-miterlimit:3}
	]]>
	</style>

	<g>
		<title>Page-1</title>
		<g id="shape1000-1" transform="translate(48.4803,-154.529)">
			<title>Rectangle.1000</title>
			<desc>Object Model</desc>
			<rect x="0" y="309.474" width="304.724" height="34.8425" class="st1"/>
			<text x="113.56" y="331.1" class="st2">Object Model</text>		</g>
		<g id="shape1001-4" transform="translate(48.4803,-239.568)">
			<title>Rectangle.1001</title>
			<desc>Scheduling Pipeline</desc>
			<rect x="0" y="309.474" width="304.724" height="34.8425" class="st1"/>
			<text x="97.15" y="331.1" class="st2">Scheduling Pipeline</text>		</g>
		<g id="shape1002-7" transform="translate(166.118,-197.048)">
			<title>Rectangle.1002</title>
			<desc>Orchestrator Client</desc>
			<rect x="0" y="309.474" width="90" height="34.8425" class="st1"/>
			<text x="8.45" y="322.7" class="st2">Orchestrator <tspan x="28.55" dy="1.2em" class="st3">Client</tspan></text>		</g>
		<g id="shape1003-11" transform="translate(263.205,-197.048)">
			<title>Rectangle.1003</title>
			<desc>Submit Job API</desc>
			<rect x="0" y="309.474" width="90" height="34.8425" class="st1"/>
			<text x="13.7" y="322.7" class="st2">Submit Job <tspan x="35.57" dy="1.2em" class="st3">API</tspan></text>		</g>
		<g id="shape1004-15" transform="translate(48.4803,-197.048)">
			<title>Rectangle.1004</title>
			<desc>Polaris Scheduler Runtime</desc>
			<rect x="0" y="309.474" width="110.551" height="34.8425" class="st1"/>
			<text x="6.42" y="322.7" class="st2">Polaris Scheduler <tspan x="31.09" dy="1.2em" class="st3">Runtime</tspan></text>		</g>
		<g id="shape1005-19" transform="translate(48.4803,-297.678)">
			<title>Rectangle.1005</title>
			<desc>Plugin A</desc>
			<rect x="0" y="309.474" width="69.4488" height="34.8425" class="st1"/>
			<text x="11.61" y="331.1" class="st2">Plugin A</text>		</g>
		<g id="shape1006-22" transform="translate(127.496,-297.678)">
			<title>Rectangle.1006</title>
			<desc>Plugin B</desc>
			<rect x="0" y="309.474" width="69.4488" height="34.8425" class="st1"/>
			<text x="11.86" y="331.1" class="st2">Plugin B</text>		</g>
		<g id="shape1007-25" transform="translate(206.512,-297.678)">
			<title>Rectangle.1007</title>
			<desc>Plugin C</desc>
			<rect x="0" y="309.474" width="69.4488" height="34.8425" class="st1"/>
			<text x="11.93" y="331.1" class="st2">Plugin C</text>		</g>
		<g id="shape1008-28" transform="translate(283.756,-297.678)">
			<title>Rectangle.1008</title>
			<desc>Plugin ...</desc>
			<rect x="0" y="309.474" width="69.4488" height="34.8425" class="st1"/>
			<text x="10.36" y="331.1" class="st2">Plugin ...</text>		</g>
		<g id="shape1009-31" transform="translate(1,-82.6585)">
			<title>Sheet.1009</title>
			<path d="M0 344.32 L366.38 344.32 L366.38 287.88 L0 287.88 L0 344.32 Z" class="st4"/>
		</g>
		<g id="shape1010-33" transform="translate(-305.049,263.075) rotate(-90)">
			<title>Sheet.1010</title>
			<desc>Connec-tors</desc>
			<rect x="0" y="308.883" width="56.434" height="35.4331" class="st5"/>
			<text x="4.85" y="322.4" class="st6">Connec-<tspan x="17" dy="1.2em" class="st3">tors</tspan></text>		</g>
		<g id="shape1011-37" transform="translate(49.8976,-89.7451)">
			<title>Rectangle.6</title>
			<desc>Cluster Agent Connector</desc>
			<rect x="0" y="301.991" width="90" height="42.3255" class="st7"/>
			<text x="6.54" y="318.95" class="st8">Cluster Agent <tspan x="15.3" dy="1.2em" class="st3">Connector</tspan></text>		</g>
		<g id="shape1012-41" transform="translate(156.551,-89.7451)">
			<title>Rectangle.1009</title>
			<desc>Kubernetes Connector</desc>
			<rect x="0" y="301.991" width="90" height="42.3255" class="st7"/>
			<text x="12.36" y="318.95" class="st8">Kubernetes <tspan x="15.3" dy="1.2em" class="st3">Connector</tspan></text>		</g>
		<g id="shape1013-45" transform="translate(262.496,-89.7451)">
			<title>Rectangle.1010</title>
			<desc>...</desc>
			<rect x="0" y="301.991" width="90" height="42.3255" class="st1"/>
			<text x="39.7" y="327.35" class="st2">...</text>		</g>
		<g id="shape1014-48" transform="translate(1,-148.564)">
			<title>Sheet.1014</title>
			<path d="M0 344.32 L366.38 344.32 L366.38 212.51 L0 212.51 L0 344.32 Z" class="st4"/>
		</g>
		<g id="shape1015-50" transform="translate(-302.923,191.5) rotate(-90)">
			<title>Sheet.1015</title>
			<desc>Polaris Scheduler Framework</desc>
			<rect x="0" y="308.883" width="123.307" height="35.4331" class="st5"/>
			<text x="12.8" y="322.4" class="st6">Polaris Scheduler <tspan x="29.25" dy="1.2em" class="st3">Framework</tspan></text>		</g>
		<g id="shape1016-54" transform="translate(1,-286.882)">
			<title>Sheet.1016</title>
			<path d="M0 344.32 L366.38 344.32 L366.38 287.88 L0 287.88 L0 344.32 Z" class="st4"/>
		</g>
		<g id="shape1017-56" transform="translate(-305.757,58.497) rotate(-90)">
			<title>Sheet.1017</title>
			<desc>Plugins</desc>
			<rect x="0" y="308.883" width="56.434" height="35.4331" class="st5"/>
			<text x="8" y="330.8" class="st6">Plugins</text>		</g>
		<g id="shape1018-59" transform="translate(449.465,-154.529)">
			<title>Rectangle.1018</title>
			<desc>Object Model</desc>
			<rect x="0" y="309.474" width="304.724" height="34.8425" class="st1"/>
			<text x="113.56" y="331.1" class="st2">Object Model</text>		</g>
		<g id="shape1019-62" transform="translate(449.465,-239.568)">
			<title>Rectangle.1019</title>
			<desc>Sampling Service</desc>
			<rect x="0" y="309.474" width="152" height="34.8425" class="st1"/>
			<text x="28.04" y="331.1" class="st2">Sampling Service</text>		</g>
		<g id="shape1020-65" transform="translate(547.898,-197.048)">
			<title>Rectangle.1020</title>
			<desc>Orchestrator Client</desc>
			<rect x="0" y="309.474" width="107.858" height="34.8425" class="st1"/>
			<text x="17.38" y="322.7" class="st2">Orchestrator <tspan x="37.48" dy="1.2em" class="st3">Client</tspan></text>		</g>
		<g id="shape1021-69" transform="translate(449.465,-197.048)">
			<title>Rectangle.1021</title>
			<desc>Nodes Cache</desc>
			<rect x="0" y="309.474" width="90" height="34.8425" class="st1"/>
			<text x="8.1" y="331.1" class="st2">Nodes Cache</text>		</g>
		<g id="shape1022-72" transform="translate(449.465,-297.678)">
			<title>Rectangle.1022</title>
			<desc>Sampling Strategy A</desc>
			<rect x="0" y="309.474" width="69.4488" height="34.8425" class="st1"/>
			<text x="8.7" y="322.7" class="st2">Sampling <tspan x="5.45" dy="1.2em" class="st3">Strategy A</tspan></text>		</g>
		<g id="shape1023-76" transform="translate(602.181,-297.678)">
			<title>Rectangle.1023</title>
			<desc>Sampling Filter X</desc>
			<rect x="0" y="309.474" width="69.4488" height="34.8425" class="st1"/>
			<text x="8.7" y="322.7" class="st2">Sampling <tspan x="14.81" dy="1.2em" class="st3">Filter X</tspan></text>		</g>
		<g id="shape1024-80" transform="translate(680.842,-297.678)">
			<title>Rectangle.1024</title>
			<desc>...</desc>
			<rect x="0" y="309.474" width="69.4488" height="34.8425" class="st1"/>
			<text x="29.42" y="331.1" class="st2">...</text>		</g>
		<g id="shape1025-83" transform="translate(401.984,-82.6585)">
			<title>Sheet.1025</title>
			<path d="M0 344.32 L366.38 344.32 L366.38 287.88 L0 287.88 L0 344.32 Z" class="st4"/>
		</g>
		<g id="shape1026-85" transform="translate(95.9355,263.075) rotate(-90)">
			<title>Sheet.1026</title>
			<desc>Connec-tors</desc>
			<rect x="0" y="308.883" width="56.434" height="35.4331" class="st5"/>
			<text x="4.85" y="322.4" class="st6">Connec-<tspan x="17" dy="1.2em" class="st3">tors</tspan></text>		</g>
		<g id="shape1027-89" transform="translate(461.512,-89.7451)">
			<title>Rectangle.1027</title>
			<desc>Kubernetes Connector</desc>
			<rect x="0" y="301.991" width="90" height="42.3255" class="st7"/>
			<text x="12.36" y="318.95" class="st8">Kubernetes <tspan x="15.3" dy="1.2em" class="st3">Connector</tspan></text>		</g>
		<g id="shape1028-93" transform="translate(664.189,-89.7451)">
			<title>Rectangle.1028</title>
			<desc>...</desc>
			<rect x="0" y="301.991" width="90" height="42.3255" class="st1"/>
			<text x="39.7" y="327.35" class="st2">...</text>		</g>
		<g id="shape1029-96" transform="translate(401.984,-148.564)">
			<title>Sheet.1029</title>
			<path d="M0 344.32 L366.38 344.32 L366.38 212.51 L0 212.51 L0 344.32 Z" class="st4"/>
		</g>
		<g id="shape1030-98" transform="translate(98.0615,191.5) rotate(-90)">
			<title>Sheet.1030</title>
			<desc>Polaris Scheduler Framework</desc>
			<rect x="0" y="308.883" width="123.307" height="35.4331" class="st5"/>
			<text x="12.8" y="322.4" class="st6">Polaris Scheduler <tspan x="29.25" dy="1.2em" class="st3">Framework</tspan></text>		</g>
		<g id="shape1031-102" transform="translate(401.984,-286.882)">
			<title>Sheet.1031</title>
			<path d="M0 344.32 L366.38 344.32 L366.38 287.88 L0 287.88 L0 344.32 Z" class="st4"/>
		</g>
		<g id="shape1032-104" transform="translate(95.2269,58.497) rotate(-90)">
			<title>Sheet.1032</title>
			<desc>Plugins</desc>
			<rect x="0" y="308.883" width="56.434" height="35.4331" class="st5"/>
			<text x="8" y="330.8" class="st6">Plugins</text>		</g>
		<g id="shape1033-107" transform="translate(1,-25.6251)">
			<title>Rectangle.1033</title>
			<rect x="0" y="325.393" width="24.0945" height="18.9232" class="st1"/>
		</g>
		<g id="shape1034-109" transform="translate(25.0945,-24.5482)">
			<title>Sheet.1034</title>
			<desc>Orchestrator-independent</desc>
			<rect x="0" y="324.316" width="175.748" height="20" class="st9"/>
			<text x="12.72" y="338.52" class="st10">Orchestrator-independent</text>		</g>
		<g id="shape1035-112" transform="translate(25.0945,-0.375)">
			<title>Sheet.1035</title>
			<desc>Orchestrator-specific connector</desc>
			<rect x="0" y="324.316" width="208.583" height="20" class="st9"/>
			<text x="13.92" y="338.52" class="st10">Orchestrator-specific connector </text>		</g>
		<g id="shape1036-115" transform="translate(1,-1.45182)">
			<title>Rectangle.1036</title>
			<rect x="0" y="325.393" width="24.0945" height="18.9232" class="st7"/>
		</g>
		<g id="shape1037-117" transform="translate(663.48,-197.048)">
			<title>Rectangle.1037</title>
			<desc>Agent API</desc>
			<rect x="0" y="309.474" width="90" height="34.8425" class="st1"/>
			<text x="17.14" y="331.1" class="st2">Agent API</text>		</g>
		<g id="shape1038-120" transform="translate(108.189,-52.8947)">
			<title>Sheet.1038</title>
			<desc>a) Polaris Scheduler</desc>
			<rect x="0" y="324.316" width="152" height="20" class="st9"/>
			<text x="20.09" y="338.52" class="st10">a) Polaris Scheduler</text>		</g>
		<g id="shape1039-123" transform="translate(509.173,-54.0251)">
			<title>Sheet.1039</title>
			<desc>b) Polaris Cluster Agent</desc>
			<rect x="0" y="324.316" width="152" height="20" class="st9"/>
			<text x="9.53" y="338.52" class="st10">b) Polaris Cluster Agent</text>		</g>
		<g id="shape1040-126" transform="translate(610.331,-239.568)">
			<title>Rectangle.1040</title>
			<desc>Sampling Pipeline</desc>
			<rect x="0" y="309.474" width="142.972" height="34.8425" class="st1"/>
			<text x="21.12" y="331.1" class="st2">Sampling Pipeline</text>		</g>
		<g id="shape1041-129" transform="translate(563.205,-89.7451)">
			<title>Rectangle.1041</title>
			<desc>Nomad Connector</desc>
			<rect x="0" y="301.991" width="90" height="42.3255" class="st7"/>
			<text x="24.17" y="318.95" class="st8">Nomad <tspan x="15.3" dy="1.2em" class="st3">Connector</tspan></text>		</g>
		<g id="shape1042-133" transform="translate(526,-297.678)">
			<title>Rectangle.1042</title>
			<desc>Sampling Strategy B</desc>
			<rect x="0" y="309.474" width="69.4488" height="34.8425" class="st1"/>
			<text x="8.7" y="322.7" class="st2">Sampling <tspan x="5.69" dy="1.2em" class="st3">Strategy B</tspan></text>		</g>
	</g>
</svg>
