<?xml version="1.0" encoding="UTF-8" standalone="no"?>
<!-- Generated by Microsoft Visio, SVG Export vela-scheduler-overview.svg Page-1 -->

<svg
   width="10.825862in"
   height="4.9700332in"
   viewBox="0 0 779.45925 357.84235"
   xml:space="preserve"
   color-interpolation-filters="sRGB"
   class="st14"
   version="1.1"
   id="svg491"
   sodipodi:docname="vela-scheduler-overview.svg"
   inkscape:version="1.2 (dc2aedaf03, 2022-05-15)"
   xmlns:inkscape="http://www.inkscape.org/namespaces/inkscape"
   xmlns:sodipodi="http://sodipodi.sourceforge.net/DTD/sodipodi-0.dtd"
   xmlns:xlink="http://www.w3.org/1999/xlink"
   xmlns="http://www.w3.org/2000/svg"
   xmlns:svg="http://www.w3.org/2000/svg"><sodipodi:namedview
   id="namedview493"
   pagecolor="#ffffff"
   bordercolor="#666666"
   borderopacity="1.0"
   inkscape:showpageshadow="2"
   inkscape:pageopacity="0.0"
   inkscape:pagecheckerboard="0"
   inkscape:deskcolor="#d1d1d1"
   inkscape:document-units="in"
   showgrid="false"
   inkscape:zoom="1.1642604"
   inkscape:cx="519.6432"
   inkscape:cy="237.91929"
   inkscape:window-width="3840"
   inkscape:window-height="1017"
   inkscape:window-x="-8"
   inkscape:window-y="-8"
   inkscape:window-maximized="1"
   inkscape:current-layer="svg491" />
	<style
   type="text/css"
   id="style2">
	<![CDATA[
		.st1 {fill:#ffffff;stroke:#000000;stroke-linecap:round;stroke-linejoin:round;stroke-width:0.24}
		.st2 {fill:#000000;font-family:Calibri;font-size:1.16666em}
		.st3 {font-size:1em}
		.st4 {stroke:#000000;stroke-linecap:round;stroke-linejoin:round;stroke-width:0.75}
		.st5 {fill:#ffffff;stroke:#000000;stroke-linecap:round;stroke-linejoin:round;stroke-width:0.75}
		.st6 {fill:#000000;font-family:Calibri;font-size:1.00001em}
		.st7 {fill:#9dbb61;stroke:#000000;stroke-linecap:round;stroke-linejoin:round;stroke-width:0.24}
		.st8 {fill:#ab9ac0;stroke:#000000;stroke-linecap:round;stroke-linejoin:round;stroke-width:0.24}
		.st9 {fill:#f59d56;stroke:#000000;stroke-linecap:round;stroke-linejoin:round;stroke-width:0.24}
		.st10 {marker-end:url(#mrkr13-152);stroke:#000000;stroke-linecap:round;stroke-linejoin:round;stroke-width:0.75}
		.st11 {fill:#000000;fill-opacity:1;stroke:#000000;stroke-opacity:1;stroke-width:0.22935779816514}
		.st12 {fill:#ffffff;stroke:none;stroke-linecap:butt;stroke-width:7.2}
		.st13 {marker-end:url(#mrkr13-180);stroke:#000000;stroke-linecap:round;stroke-linejoin:round;stroke-width:0.75}
		.st14 {fill:none;fill-rule:evenodd;font-size:12px;overflow:visible;stroke-linecap:square;stroke-miterlimit:3}
	]]>
	</style>

	<defs
   id="Markers">
		<g
   id="lend13">
			<path
   d="M 3,1 0,0 3,-1 v 2"
   style="stroke:none"
   id="path4" />
		</g>
		<marker
   id="mrkr13-152"
   class="st11"
   refX="-13.08"
   orient="auto"
   markerUnits="strokeWidth"
   overflow="visible">
			<use
   xlink:href="#lend13"
   transform="scale(-4.36)"
   id="use7" />
		</marker>
		<marker
   id="mrkr13-180"
   class="st11"
   refX="-12.6"
   orient="auto"
   markerUnits="strokeWidth"
   overflow="visible">
			<use
   xlink:href="#lend13"
   transform="scale(-4.36)"
   id="use10" />
		</marker>
	</defs>
	<g
   id="g489"
   transform="translate(-0.00136552,-14.057124)">
		<title
   id="title14">Page-1</title>
		<g
   id="shape1000-1"
   transform="translate(184.627,-180.442)">
			<title
   id="title16">Rectangle.1000</title>
			<desc
   id="desc18">Vela Scheduler A</desc>
			<rect
   x="0"
   y="333.98599"
   width="99.212601"
   height="50.787399"
   class="st1"
   id="rect20" />
			<text
   x="37.189999"
   y="355.17999"
   class="st2"
   id="text24">Vela <tspan
   x="15.75"
   dy="1.2em"
   class="st3"
   id="tspan22">Scheduler A</tspan></text>		</g>
		<g
   id="shape1001-5"
   transform="translate(184.627,-101.309)">
			<title
   id="title27">Rectangle.1001</title>
			<desc
   id="desc29">Vela Scheduler B</desc>
			<rect
   x="0"
   y="333.98599"
   width="99.212601"
   height="50.787399"
   class="st1"
   id="rect31" />
			<text
   x="37.189999"
   y="355.17999"
   class="st2"
   id="text35">Vela <tspan
   x="15.99"
   dy="1.2em"
   class="st3"
   id="tspan33">Scheduler B</tspan></text>		</g>
		<g
   id="group1003-9"
   transform="rotate(180,96.5655,246.602)">
			<title
   id="title38">Provided Interface.1003</title>
			<desc
   id="desc40">Submit Job API</desc>
			<g
   id="shape1004-10"
   transform="rotate(-0.996096,-4051.2063,-139.61696)">
				<title
   id="title42">Sheet.1004</title>
				<path
   d="M 0,384.77 H 43.09"
   class="st4"
   id="path44" />
			</g>
			<g
   id="shape1005-13"
   transform="translate(0,-62.0026)">
				<title
   id="title47">Square</title>
				<rect
   x="0"
   y="367.76501"
   width="17.0079"
   height="17.0079"
   class="st5"
   id="rect49" />
			</g>
			<g
   id="shape1006-15"
   transform="rotate(-90.9961,5.9136133,318.60356)">
				<title
   id="title52">Sheet.1006</title>
				<circle
   cx="10.2047"
   cy="374.56799"
   class="st5"
   id="ellipse54"
   r="10.2047" />
			</g>
			<g
   id="shape1003-17">
				<text
   x="-63.68"
   y="-334.5"
   transform="scale(-1)"
   class="st6"
   id="text59">Submit Job <tspan
   x="-44.93"
   dy="1.2em"
   class="st3"
   id="tspan57">API</tspan></text>			</g>
		</g>
		<g
   id="group1007-20"
   transform="rotate(180,96.5655,286.169)">
			<title
   id="title63">Provided Interface.1007</title>
			<g
   id="shape1008-21"
   transform="rotate(-0.996096,-4051.2063,-139.61696)">
				<title
   id="title65">Sheet.1008</title>
				<path
   d="M 0,384.77 H 43.09"
   class="st4"
   id="path67" />
			</g>
			<g
   id="shape1009-24"
   transform="translate(0,-62.0026)">
				<title
   id="title70">Square</title>
				<rect
   x="0"
   y="367.76501"
   width="17.0079"
   height="17.0079"
   class="st5"
   id="rect72" />
			</g>
			<g
   id="shape1010-26"
   transform="rotate(-90.9961,5.9136133,318.60356)">
				<title
   id="title75">Sheet.1010</title>
				<circle
   cx="10.2047"
   cy="374.56799"
   class="st5"
   id="ellipse77"
   r="10.2047" />
			</g>
		</g>
		<g
   id="shape1015-28"
   transform="translate(533.082,-261.466)">
			<title
   id="title81">Ellipse.1015</title>
			<path
   d="m 0,330.21 a 123.13,54.5669 0 0 1 246.26,0 123.13,54.5669 0 0 1 -246.26,0 z"
   class="st1"
   id="path83" />
		</g>
		<g
   id="shape1016-30"
   transform="translate(590.07,-328.08)">
			<title
   id="title86">Hexagon.1016</title>
			<path
   d="M 18.63,361.15 H 4.99 l -6.82,11.81 6.82,11.81 h 13.64 l 6.82,-11.81 z"
   class="st7"
   id="path88" />
		</g>
		<g
   id="shape1017-32"
   transform="translate(627.865,-342.253)">
			<title
   id="title91">Hexagon.1017</title>
			<path
   d="M 18.63,361.15 H 4.99 l -6.82,11.81 6.82,11.81 h 13.64 l 6.82,-11.81 z"
   class="st7"
   id="path93" />
		</g>
		<g
   id="shape1018-34"
   transform="translate(662.737,-342.253)">
			<title
   id="title96">Hexagon.1018</title>
			<path
   d="M 18.63,361.15 H 4.99 l -6.82,11.81 6.82,11.81 h 13.64 l 6.82,-11.81 z"
   class="st7"
   id="path98" />
		</g>
		<g
   id="shape1019-36"
   transform="translate(703.456,-336.348)">
			<title
   id="title101">Hexagon.1019</title>
			<path
   d="M 18.63,361.15 H 4.99 l -6.82,11.81 6.82,11.81 h 13.64 l 6.82,-11.81 z"
   class="st7"
   id="path103" />
		</g>
		<g
   id="shape1020-38"
   transform="translate(614.74,-313.907)">
			<title
   id="title106">Hexagon.1020</title>
			<path
   d="M 18.63,361.15 H 4.99 l -6.82,11.81 6.82,11.81 h 13.64 l 6.82,-11.81 z"
   class="st7"
   id="path108" />
		</g>
		<g
   id="shape1021-40"
   transform="translate(660.375,-304.458)">
			<title
   id="title111">Hexagon.1021</title>
			<path
   d="M 18.63,361.15 H 4.99 l -6.82,11.81 6.82,11.81 h 13.64 l 6.82,-11.81 z"
   class="st7"
   id="path113" />
		</g>
		<g
   id="shape1022-42"
   transform="translate(700.532,-301.447)">
			<title
   id="title116">Hexagon.1022</title>
			<path
   d="M 18.63,361.15 H 4.99 l -6.82,11.81 6.82,11.81 h 13.64 l 6.82,-11.81 z"
   class="st7"
   id="path118" />
		</g>
		<g
   id="shape1023-44"
   transform="translate(733.603,-313.907)">
			<title
   id="title121">Hexagon.1023</title>
			<path
   d="M 18.63,361.15 H 4.99 l -6.82,11.81 6.82,11.81 h 13.64 l 6.82,-11.81 z"
   class="st7"
   id="path123" />
		</g>
		<g
   id="shape1024-46"
   transform="translate(604.243,-285.561)">
			<title
   id="title126">Hexagon.1024</title>
			<path
   d="M 18.63,361.15 H 4.99 l -6.82,11.81 6.82,11.81 h 13.64 l 6.82,-11.81 z"
   class="st7"
   id="path128" />
		</g>
		<g
   id="shape1025-48"
   transform="translate(644.401,-276.112)">
			<title
   id="title131">Hexagon.1025</title>
			<path
   d="M 18.63,361.15 H 4.99 l -6.82,11.81 6.82,11.81 h 13.64 l 6.82,-11.81 z"
   class="st7"
   id="path133" />
		</g>
		<g
   id="shape1026-50"
   transform="translate(686.359,-276.112)">
			<title
   id="title136">Hexagon.1026</title>
			<path
   d="M 18.63,361.15 H 4.99 l -6.82,11.81 6.82,11.81 h 13.64 l 6.82,-11.81 z"
   class="st7"
   id="path138" />
		</g>
		<g
   id="shape1027-52"
   transform="translate(728.879,-285.561)">
			<title
   id="title141">Hexagon.1027</title>
			<path
   d="M 18.63,361.15 H 4.99 l -6.82,11.81 6.82,11.81 h 13.64 l 6.82,-11.81 z"
   class="st7"
   id="path143" />
		</g>
		<g
   id="shape1028-54"
   transform="translate(488.495,-280.246)">
			<title
   id="title146">Rectangle.1028</title>
			<desc
   id="desc148">Vela Cluster Agent</desc>
			<rect
   x="0"
   y="333.98599"
   width="99.212601"
   height="50.787399"
   class="st1"
   id="rect150" />
			<text
   x="37.189999"
   y="355.17999"
   class="st2"
   id="text154">Vela <tspan
   x="11.15"
   dy="1.2em"
   class="st3"
   id="tspan152">Cluster Agent</tspan></text>		</g>
		<g
   id="group1029-58"
   transform="rotate(180,248.4995,206.56)">
			<title
   id="title157">Provided Interface.1029</title>
			<desc
   id="desc159">Sampling API</desc>
			<g
   id="shape1030-59"
   transform="rotate(-0.104256,-38742.329,-6035.9874)">
				<title
   id="title161">Sheet.1030</title>
				<path
   d="M 0,384.77 H 54.71"
   class="st4"
   id="path163" />
			</g>
			<g
   id="shape1031-62"
   transform="translate(3.11516,-62.0026)">
				<title
   id="title166">Square</title>
				<rect
   x="0"
   y="367.76501"
   width="17.0079"
   height="17.0079"
   class="st5"
   id="rect168" />
			</g>
			<g
   id="shape1032-64"
   transform="rotate(-90.1043,13.211926,311.25649)">
				<title
   id="title171">Sheet.1032</title>
				<circle
   cx="10.2047"
   cy="374.56799"
   class="st5"
   id="ellipse173"
   r="10.2047" />
			</g>
			<g
   id="shape1029-66">
				<text
   x="-63.119999"
   y="-295.69"
   transform="scale(-1)"
   class="st6"
   id="text178">Sampling <tspan
   x="-48.900002"
   dy="1.2em"
   class="st3"
   id="tspan176">API</tspan></text>			</g>
		</g>
		<g
   id="group1034-69"
   transform="translate(473.761,-121.329)">
			<title
   id="title182">Sheet.1034</title>
			<g
   id="shape1035-70"
   transform="translate(59.3209,-14.2913)">
				<title
   id="title184">Ellipse.1015</title>
				<path
   d="m 0,328.08 a 123.13,56.6929 0 0 1 246.26,0 123.13,56.6929 0 0 1 -246.26,0 z"
   class="st1"
   id="path186" />
			</g>
			<g
   id="shape1036-72"
   transform="translate(116.309,-85.0394)">
				<title
   id="title189">Hexagon.1016</title>
				<path
   d="M 18.63,361.15 H 4.99 l -6.82,11.81 6.82,11.81 h 13.64 l 6.82,-11.81 z"
   class="st8"
   id="path191" />
			</g>
			<g
   id="shape1037-74"
   transform="translate(154.104,-99.2126)">
				<title
   id="title194">Hexagon.1017</title>
				<path
   d="M 18.63,361.15 H 4.99 l -6.82,11.81 6.82,11.81 h 13.64 l 6.82,-11.81 z"
   class="st8"
   id="path196" />
			</g>
			<g
   id="shape1038-76"
   transform="translate(188.976,-83.2677)">
				<title
   id="title199">Hexagon.1018</title>
				<path
   d="M 18.63,361.15 H 4.99 l -6.82,11.81 6.82,11.81 h 13.64 l 6.82,-11.81 z"
   class="st8"
   id="path201" />
			</g>
			<g
   id="shape1039-78"
   transform="translate(229.695,-93.3071)">
				<title
   id="title204">Hexagon.1019</title>
				<path
   d="M 18.63,361.15 H 4.99 l -6.82,11.81 6.82,11.81 h 13.64 l 6.82,-11.81 z"
   class="st8"
   id="path206" />
			</g>
			<g
   id="shape1040-80"
   transform="translate(142.293,-57.2835)">
				<title
   id="title209">Hexagon.1020</title>
				<path
   d="M 18.63,361.15 H 4.99 l -6.82,11.81 6.82,11.81 h 13.64 l 6.82,-11.81 z"
   class="st8"
   id="path211" />
			</g>
			<g
   id="shape1041-82"
   transform="translate(182.451,-54.9213)">
				<title
   id="title214">Hexagon.1021</title>
				<path
   d="M 18.63,361.15 H 4.99 l -6.82,11.81 6.82,11.81 h 13.64 l 6.82,-11.81 z"
   class="st8"
   id="path216" />
			</g>
			<g
   id="shape1042-84"
   transform="translate(213.159,-66.7323)">
				<title
   id="title219">Hexagon.1022</title>
				<path
   d="M 18.63,361.15 H 4.99 l -6.82,11.81 6.82,11.81 h 13.64 l 6.82,-11.81 z"
   class="st8"
   id="path221" />
			</g>
			<g
   id="shape1043-86"
   transform="translate(255.118,-76.7717)">
				<title
   id="title224">Hexagon.1023</title>
				<path
   d="M 18.63,361.15 H 4.99 l -6.82,11.81 6.82,11.81 h 13.64 l 6.82,-11.81 z"
   class="st8"
   id="path226" />
			</g>
			<g
   id="shape1044-88"
   transform="translate(130.482,-24.2126)">
				<title
   id="title229">Hexagon.1024</title>
				<path
   d="M 18.63,361.15 H 4.99 l -6.82,11.81 6.82,11.81 h 13.64 l 6.82,-11.81 z"
   class="st8"
   id="path231" />
			</g>
			<g
   id="shape1045-90"
   transform="translate(170.64,-24.2126)">
				<title
   id="title234">Hexagon.1025</title>
				<path
   d="M 18.63,361.15 H 4.99 l -6.82,11.81 6.82,11.81 h 13.64 l 6.82,-11.81 z"
   class="st8"
   id="path236" />
			</g>
			<g
   id="shape1046-92"
   transform="translate(210.797,-38.3858)">
				<title
   id="title239">Hexagon.1026</title>
				<path
   d="M 18.63,361.15 H 4.99 l -6.82,11.81 6.82,11.81 h 13.64 l 6.82,-11.81 z"
   class="st8"
   id="path241" />
			</g>
			<g
   id="shape1047-94"
   transform="translate(245.669,-47.2441)">
				<title
   id="title244">Hexagon.1027</title>
				<path
   d="M 18.63,361.15 H 4.99 l -6.82,11.81 6.82,11.81 h 13.64 l 6.82,-11.81 z"
   class="st8"
   id="path246" />
			</g>
			<g
   id="shape1048-96"
   transform="translate(14.7342,-37.2047)">
				<title
   id="title249">Rectangle.1028</title>
				<desc
   id="desc251">Vela Cluster Agent</desc>
				<rect
   x="0"
   y="333.98599"
   width="99.212601"
   height="50.787399"
   class="st1"
   id="rect253" />
				<text
   x="37.189999"
   y="355.17999"
   class="st2"
   id="text257">Vela <tspan
   x="11.15"
   dy="1.2em"
   class="st3"
   id="tspan255">Cluster Agent</tspan></text>			</g>
			<g
   id="group1049-100"
   transform="rotate(180,11.6191,323.9175)">
				<title
   id="title260">Provided Interface.1029</title>
				<g
   id="shape1050-101"
   transform="rotate(-0.104256,-38742.329,-6035.9874)">
					<title
   id="title262">Sheet.1050</title>
					<path
   d="M 0,384.77 H 54.71"
   class="st4"
   id="path264" />
				</g>
				<g
   id="shape1051-104"
   transform="translate(3.11516,-62.0026)">
					<title
   id="title267">Square</title>
					<rect
   x="0"
   y="367.76501"
   width="17.0079"
   height="17.0079"
   class="st5"
   id="rect269" />
				</g>
				<g
   id="shape1052-106"
   transform="rotate(-90.1043,13.211926,311.25649)">
					<title
   id="title272">Sheet.1052</title>
					<circle
   cx="10.2047"
   cy="374.56799"
   class="st5"
   id="ellipse274"
   r="10.2047" />
				</g>
			</g>
		</g>
		<g
   id="group1053-108"
   transform="translate(473.761)">
			<title
   id="title279">Sheet.1053</title>
			<g
   id="shape1054-109"
   transform="translate(59.3209,-12.9921)">
				<title
   id="title281">Ellipse.1015</title>
				<path
   d="m 0,327.37 a 123.13,57.4016 0 1 1 246.26,0 123.13,57.4016 0 1 1 -246.26,0 z"
   class="st1"
   id="path283" />
			</g>
			<g
   id="shape1055-111"
   transform="translate(116.309,-85.0394)">
				<title
   id="title286">Hexagon.1016</title>
				<path
   d="M 18.63,361.15 H 4.99 l -6.82,11.81 6.82,11.81 h 13.64 l 6.82,-11.81 z"
   class="st9"
   id="path288" />
			</g>
			<g
   id="shape1056-113"
   transform="translate(154.104,-99.2126)">
				<title
   id="title291">Hexagon.1017</title>
				<path
   d="M 18.63,361.15 H 4.99 l -6.82,11.81 6.82,11.81 h 13.64 l 6.82,-11.81 z"
   class="st9"
   id="path293" />
			</g>
			<g
   id="shape1057-115"
   transform="translate(191.9,-85.0394)">
				<title
   id="title296">Hexagon.1018</title>
				<path
   d="M 18.63,361.15 H 4.99 l -6.82,11.81 6.82,11.81 h 13.64 l 6.82,-11.81 z"
   class="st9"
   id="path298" />
			</g>
			<g
   id="shape1058-117"
   transform="translate(229.695,-93.3071)">
				<title
   id="title301">Hexagon.1019</title>
				<path
   d="M 18.63,361.15 H 4.99 l -6.82,11.81 6.82,11.81 h 13.64 l 6.82,-11.81 z"
   class="st9"
   id="path303" />
			</g>
			<g
   id="shape1059-119"
   transform="translate(142.293,-54.9213)">
				<title
   id="title306">Hexagon.1020</title>
				<path
   d="M 18.63,361.15 H 4.99 l -6.82,11.81 6.82,11.81 h 13.64 l 6.82,-11.81 z"
   class="st9"
   id="path308" />
			</g>
			<g
   id="shape1060-121"
   transform="translate(182.451,-54.9213)">
				<title
   id="title311">Hexagon.1021</title>
				<path
   d="M 18.63,361.15 H 4.99 l -6.82,11.81 6.82,11.81 h 13.64 l 6.82,-11.81 z"
   class="st9"
   id="path313" />
			</g>
			<g
   id="shape1061-123"
   transform="translate(222.608,-62.5984)">
				<title
   id="title316">Hexagon.1022</title>
				<path
   d="M 18.63,361.15 H 4.99 l -6.82,11.81 6.82,11.81 h 13.64 l 6.82,-11.81 z"
   class="st9"
   id="path318" />
			</g>
			<g
   id="shape1062-125"
   transform="translate(259.843,-71.4567)">
				<title
   id="title321">Hexagon.1023</title>
				<path
   d="M 18.63,361.15 H 4.99 l -6.82,11.81 6.82,11.81 h 13.64 l 6.82,-11.81 z"
   class="st9"
   id="path323" />
			</g>
			<g
   id="shape1063-127"
   transform="translate(130.482,-20.0787)">
				<title
   id="title326">Hexagon.1024</title>
				<path
   d="M 18.63,361.15 H 4.99 l -6.82,11.81 6.82,11.81 h 13.64 l 6.82,-11.81 z"
   class="st9"
   id="path328" />
			</g>
			<g
   id="shape1064-129"
   transform="translate(170.64,-20.0787)">
				<title
   id="title331">Hexagon.1025</title>
				<path
   d="M 18.63,361.15 H 4.99 l -6.82,11.81 6.82,11.81 h 13.64 l 6.82,-11.81 z"
   class="st9"
   id="path333" />
			</g>
			<g
   id="shape1065-131"
   transform="translate(210.797,-30.7087)">
				<title
   id="title336">Hexagon.1026</title>
				<path
   d="M 18.63,361.15 H 4.99 l -6.82,11.81 6.82,11.81 h 13.64 l 6.82,-11.81 z"
   class="st9"
   id="path338" />
			</g>
			<g
   id="shape1066-133"
   transform="translate(255.118,-43.7008)">
				<title
   id="title341">Hexagon.1027</title>
				<path
   d="M 18.63,361.15 H 4.99 l -6.82,11.81 6.82,11.81 h 13.64 l 6.82,-11.81 z"
   class="st9"
   id="path343" />
			</g>
			<g
   id="shape1067-135"
   transform="translate(14.7342,-37.2047)">
				<title
   id="title346">Rectangle.1028</title>
				<desc
   id="desc348">Vela Cluster Agent</desc>
				<rect
   x="0"
   y="333.98599"
   width="99.212601"
   height="50.787399"
   class="st1"
   id="rect350" />
				<text
   x="37.189999"
   y="355.17999"
   class="st2"
   id="text354">Vela <tspan
   x="11.15"
   dy="1.2em"
   class="st3"
   id="tspan352">Cluster Agent</tspan></text>			</g>
			<g
   id="group1068-139"
   transform="rotate(180,11.6191,325.984)">
				<title
   id="title357">Provided Interface.1029</title>
				<g
   id="shape1069-140"
   transform="rotate(-0.104256,-38742.329,-6035.9874)">
					<title
   id="title359">Sheet.1069</title>
					<path
   d="M 0,384.77 H 54.71"
   class="st4"
   id="path361" />
				</g>
				<g
   id="shape1070-143"
   transform="translate(3.11516,-62.0026)">
					<title
   id="title364">Square</title>
					<rect
   x="0"
   y="367.76501"
   width="17.0079"
   height="17.0079"
   class="st5"
   id="rect366" />
				</g>
				<g
   id="shape1071-145"
   transform="rotate(-90.1043,13.211926,311.25649)">
					<title
   id="title369">Sheet.1071</title>
					<circle
   cx="10.2047"
   cy="374.56799"
   class="st5"
   id="ellipse371"
   r="10.2047" />
				</g>
			</g>
		</g>
		<g
   id="shape1072-147"
   transform="translate(283.84,-205.836)">
			<title
   id="title376">Dynamic connector.1072</title>
			<path
   d="m 0,384.77 118.13,-74.7"
   class="st10"
   id="path378" />
		</g>
		<g
   id="shape1073-153"
   transform="translate(283.84,-205.836)">
			<title
   id="title381">Dynamic connector.1073</title>
			<desc
   id="desc383">2. Sample Nodes</desc>
			<path
   d="M 0,384.77 116.94,415.7"
   class="st10"
   id="path385" />
			<rect
   x="21.226999"
   y="380.68799"
   width="81.457603"
   height="14.4001"
   class="st12"
   id="rect387" />
			<text
   x="21.23"
   y="391.48999"
   class="st6"
   id="text389">2. Sample Nodes</text>		</g>
		<g
   id="shape1074-160"
   transform="translate(283.84,-205.836)">
			<title
   id="title392">Dynamic connector.1074</title>
			<path
   d="M 0,384.77 120.32,536"
   class="st10"
   id="path394" />
		</g>
		<g
   id="shape1075-165"
   transform="translate(0.375,-129.655)">
			<title
   id="title397">Actor.1075</title>
			<desc
   id="desc399">User</desc>
			<path
   d="m 6.8,384.77 v -35.43 14.17 H 0 v -28.34 l 3.4,-3.55 h 27.21 l 3.41,3.55 v 28.34 h -6.81 v -14.17 35.43 h -10.2 v -28.34 28.34 z m 17.29,-63.78 a 7.08661,7.08661 -180 1 0 -14.17,0 7.08661,7.08661 -180 1 0 14.17,0 z"
   class="st5"
   id="path401" />
			<text
   x="5.73"
   y="399.57999"
   class="st6"
   id="text403">User</text>		</g>
		<g
   id="shape1076-168"
   transform="translate(34.3907,-171.587)">
			<title
   id="title406">Dynamic connector.1076</title>
			<desc
   id="desc408">1. Submit Job</desc>
			<path
   d="M 0,384.77 77.58,355.13"
   class="st10"
   id="path410" />
			<rect
   x="10.6314"
   y="361.00101"
   width="65.479103"
   height="14.4001"
   class="st12"
   id="rect412" />
			<text
   x="10.63"
   y="371.79999"
   class="st6"
   id="text414">1. Submit Job</text>		</g>
		<g
   id="shape1077-175"
   transform="translate(234.233,-231.23)">
			<title
   id="title417">Dynamic connector.1077</title>
			<desc
   id="desc419">3. Submit Job &amp; Node Assignment to Cluster</desc>
			<path
   d="m 0,384.77 c 0,-20.72 0,-49.01 27.34,-64.43 30.4,-17.15 94.63,-18.37 138.88,-18.46 h 0.36"
   class="st13"
   id="path421" />
			<rect
   x="-18.735001"
   y="294.133"
   width="165.07201"
   height="28.8001"
   class="st12"
   id="rect423" />
			<text
   x="-18.73"
   y="304.92999"
   class="st6"
   id="text427">3. Submit Job &amp; Node Assignment <tspan
   x="40.110001"
   dy="1.2em"
   class="st3"
   id="tspan425">to Cluster</tspan></text>		</g>
		<g
   id="group1078-184"
   transform="rotate(180,248.4995,192.3865)">
			<title
   id="title430">Provided Interface.1078</title>
			<desc
   id="desc432">Agent API</desc>
			<g
   id="shape1079-185"
   transform="rotate(-0.104256,-38742.329,-6035.9874)">
				<title
   id="title434">Sheet.1079</title>
				<path
   d="M 0,384.77 H 54.71"
   class="st4"
   id="path436" />
			</g>
			<g
   id="shape1080-188"
   transform="translate(3.11516,-62.0026)">
				<title
   id="title439">Square</title>
				<rect
   x="0"
   y="367.76501"
   width="17.0079"
   height="17.0079"
   class="st5"
   id="rect441" />
			</g>
			<g
   id="shape1081-190"
   transform="rotate(-90.1043,13.211926,311.25649)">
				<title
   id="title444">Sheet.1081</title>
				<circle
   cx="10.2047"
   cy="374.56799"
   class="st5"
   id="ellipse446"
   r="10.2047" />
			</g>
			<g
   id="shape1078-192">
				<text
   x="-68.379997"
   y="-324.48001"
   transform="scale(-1)"
   class="st6"
   id="text449">Agent API</text>			</g>
		</g>
		<g
   id="group1082-194"
   transform="rotate(180,248.4995,249.0795)">
			<title
   id="title453">Provided Interface.1082</title>
			<g
   id="shape1083-195"
   transform="rotate(-0.104256,-38742.329,-6035.9874)">
				<title
   id="title455">Sheet.1083</title>
				<path
   d="M 0,384.77 H 54.71"
   class="st4"
   id="path457" />
			</g>
			<g
   id="shape1084-198"
   transform="translate(3.11516,-62.0026)">
				<title
   id="title460">Square</title>
				<rect
   x="0"
   y="367.76501"
   width="17.0079"
   height="17.0079"
   class="st5"
   id="rect462" />
			</g>
			<g
   id="shape1085-200"
   transform="rotate(-90.1043,13.211926,311.25649)">
				<title
   id="title465">Sheet.1085</title>
				<circle
   cx="10.2047"
   cy="374.56799"
   class="st5"
   id="ellipse467"
   r="10.2047" />
			</g>
		</g>
		<g
   id="group1086-202"
   transform="rotate(180,248.4995,311.811)">
			<title
   id="title471">Provided Interface.1086</title>
			<g
   id="shape1087-203"
   transform="rotate(-0.104256,-38742.329,-6035.9874)">
				<title
   id="title473">Sheet.1087</title>
				<path
   d="M 0,384.77 H 54.71"
   class="st4"
   id="path475" />
			</g>
			<g
   id="shape1088-206"
   transform="translate(3.11516,-62.0026)">
				<title
   id="title478">Square</title>
				<rect
   x="0"
   y="367.76501"
   width="17.0079"
   height="17.0079"
   class="st5"
   id="rect480" />
			</g>
			<g
   id="shape1089-208"
   transform="rotate(-90.1043,13.211926,311.25649)">
				<title
   id="title483">Sheet.1089</title>
				<circle
   cx="10.2047"
   cy="374.56799"
   class="st5"
   id="ellipse485"
   r="10.2047" />
			</g>
		</g>
	</g>
</svg>
